<?xml version="1.0" encoding="utf-8"?>
<!-- Generator: Adobe Illustrator 25.3.1, SVG Export Plug-In . SVG Version: 6.00 Build 0)  -->
<svg version="1.0" id="Слой_1" xmlns="http://www.w3.org/2000/svg" xmlns:xlink="http://www.w3.org/1999/xlink" x="0px" y="0px"
	 viewBox="0 0 1080 1080" enable-background="new 0 0 1080 1080" xml:space="preserve">
<g>
	<rect x="0.5" y="-0.5" fill="#FFFFFF" stroke="#40B2FF" stroke-width="5" stroke-miterlimit="10" width="1080" height="1080"/>
	<polygon fill="#FF40FB" points="122,518 122,519 99,519 99,506 104,506 104,518 	"/>
	<circle fill="#FF7640" cx="456" cy="380" r="26"/>
	<path fill="#7DFF40" d="M706.3,379.6c0,93.7-52.3,179.5-135.6,222.4l-2.3-4.5c81.7-41.9,133-126.1,132.8-218
		c0-135.2-110-245.2-245.2-245.2s-245.2,110-245.2,245.2c0,30.6,5.7,61,16.9,89.5l-4.6,1.8c-50.4-128.6,13-273.8,141.6-324.3
		s273.8,13,324.3,141.6C700.4,317.3,706.3,348.3,706.3,379.6L706.3,379.6z"/>
	<path fill="#7DFF40" d="M721.3,380.2c0,99.3-55.4,190.3-143.7,235.8l0,0l-6.9-13.3l-2.3-4.5l-6.9-13.3
		c76.7-39.4,124.9-118.4,124.7-204.6c0-126.9-103.2-230.2-230.2-230.2S225.9,253.3,225.9,380.2c0,28.7,5.3,57.2,15.8,84l-13.9,5.5
		l-4.6,1.8l-14,5.5l0,0c-53.5-136.4,13.8-290.2,150.1-343.7s290.2,13.8,343.7,150.1C715,314.3,721.2,347.2,721.3,380.2L721.3,380.2z
		"/>
	<circle fill="#FF7640" cx="254" cy="517" r="6"/>
	<circle fill="#FF7640" cx="540.5" cy="860.5" r="56.5"/>
	<circle fill="#FF7640" cx="719" cy="848" r="34"/>
	
		<rect x="106.9" y="790.3" transform="matrix(4.606038e-02 -0.9989 0.9989 4.606038e-02 -430.3235 1140.025)" fill="#40B2FF" width="549.7" height="10"/>
	
		<rect x="312.2" y="510.9" transform="matrix(0.7334 -0.6798 0.6798 0.7334 -311.3879 368.9896)" fill="#40B2FF" width="5" height="141.2"/>
	
		<rect x="813" y="601.9" transform="matrix(0.1309 -0.9914 0.9914 0.1309 -35.7383 1461.1715)" fill="#40B2FF" width="5" height="298.1"/>
	<path fill="#40B2FF" d="M1050,30v1020H30V30H1050 M1080,0H0v1080h1080V0z"/>
	<path fill="#40B2FF" d="M719.3,916.1c-38,0-68.7-30.7-68.8-68.7s30.7-68.7,68.7-68.8s68.7,30.7,68.8,68.7c0,0,0,0,0,0.1
		C788,885.3,757.2,916,719.3,916.1z M719.3,788.7c-32.4,0-58.7,26.2-58.8,58.7c0,32.4,26.2,58.7,58.7,58.8s58.7-26.2,58.8-58.7
		c0,0,0,0,0,0C778,815,751.7,788.7,719.3,788.7z"/>
	<path fill="#40B2FF" d="M540.7,953.7c-51.6,0-93.4-41.8-93.4-93.5s41.8-93.5,93.4-93.5c51.6,0,93.5,41.8,93.5,93.5
		C634,911.8,592.2,953.6,540.7,953.7z M540.7,776.8c-46.1,0-83.4,37.4-83.4,83.5c0,46.1,37.4,83.4,83.4,83.4s83.5-37.4,83.5-83.4
		C624.1,814.2,586.7,776.8,540.7,776.8z"/>
	<path fill="#40B2FF" d="M650,993.5c-10.7,0-22-4.1-30.1-16.8l8.4-5.4c13.8,21.7,39.2,7.8,40.3,7.2l4.9,8.7
		C666.3,991.3,658.2,993.4,650,993.5z"/>
	
		<rect x="615.2" y="966.8" transform="matrix(0.8507 -0.5256 0.5256 0.8507 -416.6181 470.6032)" fill="#40B2FF" width="10" height="3.8"/>
	
		<rect x="652.6" y="922" transform="matrix(0.9997 -2.268733e-02 2.268733e-02 0.9997 -20.9254 15.1577)" fill="#40B2FF" width="10" height="15.7"/>
	<line fill="none" stroke="#40B2FF" stroke-width="5" stroke-miterlimit="10" x1="560.6" y1="679.4" x2="543" y2="702.3"/>
	<line fill="none" stroke="#40B2FF" stroke-width="5" stroke-miterlimit="10" x1="578" y1="700.8" x2="574.6" y2="711.2"/>
	<line fill="none" stroke="#40B2FF" stroke-width="5" stroke-miterlimit="10" x1="604.5" y1="709" x2="604.5" y2="712"/>
	<line fill="none" stroke="#40B2FF" stroke-width="5" stroke-miterlimit="10" x1="534.1" y1="673.5" x2="529.8" y2="676.3"/>
	<circle fill="#40B2FF" cx="462" cy="722" r="6"/>
	<line fill="none" stroke="#40B2FF" stroke-width="25" stroke-miterlimit="10" x1="423.5" y1="496.4" x2="394.4" y2="395.8"/>
	<path fill="none" stroke="#40B2FF" stroke-width="5" stroke-miterlimit="10" d="M537.2,503.1c0,2.8-18.7,112.8-18.7,112.8"/>
	<line fill="none" stroke="#40B2FF" stroke-width="3" stroke-miterlimit="10" x1="193" y1="516.5" x2="236" y2="516.5"/>
</g>
</svg>
