<?xml version="1.0" encoding="utf-8"?>
<!-- Generator: Adobe Illustrator 25.3.1, SVG Export Plug-In . SVG Version: 6.00 Build 0)  -->
<svg version="1.1" xmlns="http://www.w3.org/2000/svg" xmlns:xlink="http://www.w3.org/1999/xlink" x="0px" y="0px"
	 viewBox="0 0 1080 1080" style="enable-background:new 0 0 1080 1080;" xml:space="preserve">
<style type="text/css">
	.st0{fill:#00FFCE;}
	.st1{fill:#C0FFE4;}
	.st2{fill:#FFFFFF;stroke:#0000FF;stroke-width:5;stroke-miterlimit:10;}
	.st3{fill:#FFFFFF;stroke:#00FF00;stroke-width:5;stroke-miterlimit:10;}
	.st4{fill:#FFFFFF;stroke:#000000;stroke-width:5;stroke-miterlimit:10;}
	.st5{fill:#FFFFFF;stroke:#40B2FF;stroke-width:5;stroke-miterlimit:10;}
	.st6{fill:#FFFFFF;stroke:#FF0000;stroke-width:5;stroke-miterlimit:10;}
	.st7{fill:#FFFFFF;}
	.st8{fill:#3F3F3F;}
	.st9{fill:#FF40ED;}
	.st10{fill:#FF80C6;}
	.st11{fill:#0000FF;}
	.st12{fill:#00FF00;}
	.st13{display:none;opacity:0.3;}
	.st14{display:inline;}
	.st15{fill:#231F20;}
	.st16{fill:#FF0000;}
	.st17{fill:#FF40FB;}
	.st18{fill:#FF7640;}
	.st19{fill:#7DFF40;}
	.st20{fill:#40B2FF;}
	.st21{fill:none;stroke:#40B2FF;stroke-width:5;stroke-miterlimit:10;}
	.st22{fill:none;stroke:#40B2FF;stroke-width:25;stroke-miterlimit:10;}
	.st23{fill:none;stroke:#40B2FF;stroke-width:3;stroke-miterlimit:10;}
	.st24{fill:#FF7140;}
	.st25{fill:#FFFDC0;}
	.st26{fill:#FFA780;}
	.st27{fill:#FF4343;}
	.st28{fill:#FF4848;}
	.st29{fill:#FFFC80;}
	.st30{fill:#40FFF1;}
	.st31{fill:#FF4040;}
	.st32{fill:#80FFFF;}
	.st33{clip-path:url(#SVGID_2_);}
</style>
<g id="Фон">
	<g>
		<path class="st1" d="M1078.2,0v1080H-1.8V0H1078.2 M1088.2-10h-10H-1.8h-10V0v1080v10h10h1080h10v-10V0V-10L1088.2-10z"/>
	</g>
	<rect class="st8" width="1080" height="1080"/>
</g>
<g id="Heart">
	<path class="st10" d="M510.1,673.5c3.8,0,8,1,11.9,3l202,99.1c17,8.4,32.5,19.9,44.9,33.2c11.9,12.9,20.6,27.3,25.2,41.6
		c5.8,17.9,4.9,34.7-2.5,48.6c-9.8,18.4-31.6,28.9-59.7,28.9c-20.3,0-41.9-5.4-62.6-15.5l-20.5-10.1l-5-2.4l-1.9,5.2l-5.6,15.1
		c-4.4,11.9-12.8,21.8-24.4,28.6c-11.6,6.9-26,10.5-41.8,10.5c-15.1,0-30.6-3.2-46.2-9.6c-28.2-11.6-53.1-31.7-68.2-55.1
		c-14.7-22.8-19.1-47-11.9-66.2l55.1-148.8C500.2,675.7,504.4,673.5,510.1,673.5 M510.1,668.5c-7.5,0-13.7,3.3-15.9,9.3l-55.1,148.8
		c-16,43.3,21.5,102.5,83,127.7c16.6,6.8,33,10,48.1,10c33.6,0,61-15.7,70.8-42.4l5.6-15.1l20.5,10.1c21.8,10.7,44.4,16,64.8,16
		c28.7,0,52.9-10.5,64.1-31.6c22-41.3-11.2-101.4-69.9-130.2l-202-99.1C519.4,669.6,514.5,668.5,510.1,668.5L510.1,668.5z"/>
</g>
<g id="Rabota1">
	<g>
		<g>
			<g>
				<path class="st7" d="M513.1,872.7c0.5-0.5,1-1.1,1.5-1.6c0.4-0.5-0.2-1.3-0.7-1c-6.6,2.9-12.8,6.6-18.6,11
					c-2.9,2.2-5.6,4.5-8.2,7c-1.9,1.8-3.6,3.8-4.9,6c-1.4,2.5-2.1,5.3-1.5,8.1c0.1,0.4,0.7,0.6,1,0.3c2.9-2.7,3.5-6.8,4.1-10.5
					c0.5-3.8,0.7-7.6,0.5-11.4c-0.4-7.7-2.4-15.2-5.8-22.1c-2.2-4.6-5-8.8-7.8-13.1c-0.2,0.3-0.4,0.7-0.6,1c5.1,1.3,9.8,4,14.2,6.9
					c4.6,3,8.9,6.2,13,9.8c4.1,3.6,8,7.6,11.5,11.8c3.5,4.2,6.9,8.6,9.3,13.5c0.6,1.3,1.2,2.6,1.7,3.9c0.4,1.1,0.8,2.2,1,3.4
					c0.2,0.9,0.2,2-0.2,2.9c-0.5,1.1-1.6,1.5-2.7,1.6c-2.4,0.1-5-0.7-7.3-1.5c-2.5-0.9-4.9-2.1-7.3-3.3c-5.1-2.6-10-5.4-15-8.3
					c-5-2.9-10-5.9-15-8.8c-10.2-5.9-20.3-11.9-30.5-17.8c-1.2-0.7-2.5-1.5-3.7-2.2c-0.2,0.4-0.4,0.8-0.5,1.2
					c10.7,5.3,21.1,11.2,31,17.8c10,6.6,19.5,13.8,28.5,21.6c2.6,2.3,5.2,4.6,7.7,7.1c1.2,1.2,2.4,2.5,3.5,3.9
					c0.7,0.8,1.8,2,1.2,3.1c0.1-0.1,0.2-0.2,0.4-0.3c0,0,0.1,0.1,0.1,0c0-0.1-0.1-0.2-0.1-0.2c0-0.2,0.3-0.5,0.4-0.7
					c0.4-0.5,0.7-1.1,0.6-1.8c-0.2-1.3-1.4-2.1-2.6-2.1c-0.7,0-1.4,0.2-2.1,0.5c-0.6,0.3-1.2,0.6-1.7,1c-0.5,0.4-0.8,1-0.8,1.6
					c0.1,0.7,0.6,1.2,1.2,1.4c0.8,0.2,1.7,0.1,2.5,0c0.9-0.1,1.8-0.4,2.6-0.7c-0.2-0.4-0.4-0.8-0.6-1.1c-1.1,1-0.6,2.8,0.7,3.4
					c1.6,0.7,3.5-0.2,4.9-0.9c3.4-1.6,6.4-3.9,8.8-6.8c1.3-1.6,2.5-3.4,3.3-5.3c0.3-0.6-0.5-1.2-1-0.8c-5.2,4.6-7.4,11.3-11.1,17
					c-0.5,0.8-1.1,1.6-1.6,2.3c-0.3,0.4-1.2,1.7-1.8,1.5c0.1,0.2,0.3,0.5,0.4,0.7c0.4-2.9,1.8-5.8,4.1-7.7c0.8-0.6,2-1.4,3.1-1
					c1,0.3,1,1.5,0.8,2.3c-0.3,1.3-0.8,2.5-0.8,3.9c0,0.2,0.2,0.4,0.4,0.5c1.3,0.7,2.8,0.9,4.3,0.8c-0.2-0.3-0.4-0.6-0.7-0.9
					c-0.6,1.4-1.2,3.2,0.1,4.5c0.5,0.5,1.3,0.7,1.9,0.5c0.9-0.3,1.3-1.2,1.6-2.1c0.5-1.7,0.6-3.5,0.3-5.2c-0.3-1.4-1.2-3.4-3-2.5
					c-0.9,0.4-1.4,1.4-1.8,2.3c-0.5,0.9-0.8,2-0.9,3c-0.1,0.8,1.2,1.1,1.3,0.2c0.1-0.8,0.3-1.7,0.7-2.4c0.3-0.6,0.7-1.5,1.3-1.9
					c1.2-0.6,1.3,2.7,1.3,3.2c0,0.8-0.1,1.6-0.3,2.4c-0.1,0.5-0.3,1.7-1,1.8c-0.5,0-0.9-0.5-0.9-1c-0.1-0.8,0.3-1.6,0.6-2.2
					c0.2-0.4-0.2-1-0.7-0.9c-1.3,0.1-2.5-0.1-3.7-0.7c0.1,0.2,0.3,0.4,0.4,0.5c-0.1-2.3,2.3-5.7-0.6-7.2c-1.2-0.7-2.7-0.2-3.9,0.5
					c-1.4,0.8-2.5,2.2-3.4,3.6c-1.1,1.7-1.7,3.5-2,5.5c0,0.3,0.1,0.6,0.4,0.7c1.6,0.7,2.9-1.3,3.8-2.4c1.1-1.4,2-3,2.9-4.6
					c1.8-3.1,3.2-6.4,5.2-9.4c1.1-1.7,2.4-3.2,3.9-4.5c-0.3-0.3-0.7-0.5-1-0.8c-2.6,5.6-7.5,10.2-13.3,12.2c-0.6,0.2-1.4,0.5-2,0.1
					c-0.3-0.2-0.8-0.8-0.4-1.1c0.5-0.5,0.1-1.4-0.6-1.1c-0.8,0.3-1.7,0.6-2.6,0.7c-0.3,0-1.9,0.3-1.9-0.3c0-0.5,1.1-1,1.5-1.2
					c0.7-0.3,1.5-0.7,2.2-0.4c0.5,0.2,1.1,0.7,0.8,1.3c-0.3,0.7-1,1.1-1,2c0,0.6,0.3,1.2,0.9,1.4c0.8,0.3,1.3-0.3,1.5-1
					c0.3-1.4-0.6-2.7-1.5-3.7c-1.3-1.5-2.6-2.9-4-4.3c-2.8-2.8-5.7-5.4-8.7-7.9c-5.7-4.9-11.6-9.5-17.7-13.9
					c-6.1-4.4-12.4-8.6-18.8-12.5c-6.4-3.9-13-7.6-19.7-11c-0.8-0.4-1.7-0.8-2.5-1.2c-0.8-0.4-1.2,0.8-0.5,1.2
					c10.4,6.1,20.9,12.2,31.3,18.4c5.2,3.1,10.4,6.1,15.7,9.2c5,3,10.1,5.9,15.3,8.6c2.5,1.3,5,2.6,7.6,3.7c2.4,1,4.9,1.9,7.5,2.2
					c2.3,0.3,5.1,0,6-2.5c0.8-2.2,0-4.6-0.8-6.6c-2-5.3-5.1-10.2-8.6-14.6c-3.4-4.5-7.2-8.6-11.3-12.5c-4.1-3.9-8.5-7.5-13.1-10.7
					c-4.4-3.1-9.1-6.1-14.2-8.1c-1.2-0.5-2.5-0.9-3.8-1.2c-0.6-0.2-0.9,0.6-0.6,1c2.4,3.7,4.7,7.3,6.8,11.2c1.8,3.4,3.3,7,4.4,10.7
					c2.1,7,2.7,14.5,1.9,21.8c-0.2,2-0.5,4-1,6c-0.5,2-1.2,4.1-2.8,5.6c0.3,0.1,0.7,0.2,1,0.3c-1.1-4.9,2.6-9.4,5.9-12.5
					c4.9-4.7,10.4-8.9,16.2-12.4c3.3-2,6.8-3.8,10.4-5.4c-0.2-0.3-0.5-0.7-0.7-1c-0.5,0.5-1,1.1-1.5,1.6
					C511.5,872.5,512.6,873.3,513.1,872.7L513.1,872.7z"/>
			</g>
		</g>
		<g>
			<g>
				<path class="st7" d="M548.8,899.2c-1.3,2.6-2.9,4.9-4.6,7.3c-1.7,2.4-3.4,4.7-5,7.2c-1.6,2.5-3.2,5-4.6,7.6
					c-1.4,2.5-2.8,5.1-4.1,7.7c-1.3,2.6-2.5,5.2-3.7,7.9c-0.1,0.3-0.3,0.7-0.4,1c-0.1,0.3,0,0.7,0.3,0.9c0.3,0.1,0.7,0,0.9-0.3
					c1.1-2.7,2.3-5.3,3.6-7.9c1.3-2.6,2.6-5.2,4.1-7.7c1.4-2.5,2.9-5,4.5-7.4c1.6-2.4,3.2-4.8,4.9-7.2c1.7-2.4,3.5-4.8,4.8-7.4
					c0.2-0.3,0.3-0.6,0.5-1c0.1-0.3,0-0.7-0.3-0.9C549.3,898.7,548.9,898.9,548.8,899.2L548.8,899.2z"/>
			</g>
		</g>
		<g>
			<g>
				<path class="st7" d="M515.2,901.9c-0.3-0.1-0.6-0.3-0.9-0.4c-0.8-0.3-1.3,0.8-0.5,1.2c3.4,1.8,6.9,3.5,10.3,5.3
					c3.4,1.8,6.9,3.5,10.3,5.3s6.9,3.5,10.3,5.3c3.4,1.8,6.9,3.5,10.3,5.3c3.4,1.8,6.9,3.5,10.3,5.3c0.4,0.2,0.8,0.4,1.3,0.6
					c0.3,0.2,0.7,0,0.9-0.3c0.2-0.3,0-0.7-0.3-0.9c-3.4-1.8-6.9-3.5-10.3-5.3s-6.9-3.5-10.3-5.3c-3.4-1.8-6.9-3.5-10.3-5.3
					c-3.4-1.8-6.9-3.5-10.3-5.3c-3.4-1.8-6.9-3.5-10.3-5.3c-0.4-0.2-0.8-0.4-1.3-0.6c-0.2,0.4-0.4,0.8-0.5,1.2
					c0.3,0.1,0.6,0.3,0.9,0.4C515.5,903.5,516,902.3,515.2,901.9L515.2,901.9z"/>
			</g>
		</g>
		<g>
			<g>
				<path class="st7" d="M550.4,928c3.3-2.2,6.3-4.9,9.1-7.7c0.8-0.8,1.6-1.6,2.4-2.3c-0.3-0.3-0.7-0.5-1-0.8
					c-2.4,3.1-4.5,6.5-6.2,10.1c-1.7,3.5-3,7.3-3.8,11.1c-0.2,1.1-0.5,2.1-0.6,3.2c-0.2,1.1-0.2,2.4,0.5,3.3
					c0.2,0.2,0.5,0.3,0.8,0.2c0.3-0.1,0.4-0.4,0.4-0.7c0-1.3-0.7-2.5-1.6-3.4c-0.9-0.9-2-1.6-3.1-2.3c-2.4-1.5-4.8-2.8-7.3-4.1
					c-2.5-1.2-5-2.4-7.5-3.4c-2.5-1-5.1-2-7.7-2.8c-2.7-0.8-5.3-1.6-8.1-2.2c-0.3-0.1-0.7-0.1-1-0.2c-0.3-0.1-0.7,0.2-0.8,0.5
					c-0.1,0.4,0.2,0.7,0.5,0.8c3.7,0.8,7.5,1.8,11.1,2.8c3.7,1,7.3,2.1,10.9,3.2c3.7,1.2,7.3,2.4,10.9,3.6c3.6,1.2,7.3,2.5,10.9,3.8
					c1.7,0.6,3.5,1.2,5.2,1.8c1.7,0.6,3.4,1,5.2,1.3c0.4,0.1,0.9,0.1,1.3,0.1c0.3,0,0.7-0.2,0.8-0.5c0-0.3,0.1-0.6,0.1-0.9
					c0.1-0.3-0.2-0.7-0.5-0.8c-0.3-0.1-0.7,0.2-0.8,0.5c0,0.3-0.1,0.6-0.1,0.9c0.3-0.2,0.5-0.4,0.8-0.5c-3.6-0.2-6.9-1.5-10.3-2.7
					c-3.6-1.3-7.2-2.5-10.9-3.8c-3.6-1.2-7.3-2.5-10.9-3.6c-3.7-1.2-7.4-2.3-11.1-3.3c-3.7-1-7.4-2-11.1-2.8
					c-0.5-0.1-0.9-0.2-1.4-0.3c-0.1,0.4-0.1,0.9-0.2,1.3c2.6,0.6,5.3,1.2,7.8,2c2.5,0.8,5.1,1.6,7.6,2.6c2.5,1,5,2.1,7.4,3.3
					c2.4,1.2,4.8,2.5,7.1,3.9c1.1,0.6,2.2,1.3,3.2,2c0.3,0.2,0.5,0.4,0.7,0.6c0.1,0.1,0.2,0.2,0.3,0.3c0.1,0.1,0,0,0,0
					c0,0,0,0.1,0.1,0.1c0.1,0.1,0.1,0.1,0.2,0.2c0.2,0.2,0.3,0.5,0.5,0.7c0,0.1,0,0,0,0c0,0,0,0.1,0,0.1c0,0.1,0.1,0.1,0.1,0.2
					c0.1,0.1,0.1,0.3,0.1,0.4c0,0.1,0,0,0,0c0,0,0,0.1,0,0.1c0,0.1,0,0.1,0,0.2c0,0.1,0,0.3,0,0.4c0.4-0.1,0.8-0.3,1.2-0.4
					c-0.2-0.3-0.3-0.7-0.4-1.1c0-0.4,0-0.8,0.1-1.3c0.1-0.9,0.3-1.9,0.5-2.8c0.4-1.9,0.9-3.7,1.5-5.4c1.2-3.6,2.8-7.1,4.7-10.3
					c1.1-1.8,2.3-3.6,3.6-5.2c0.2-0.3,0.2-0.7-0.1-0.9c-0.3-0.2-0.7-0.2-0.9,0.1c-2.8,2.7-5.5,5.4-8.6,7.8c-0.9,0.7-1.8,1.3-2.7,2
					c-0.3,0.2-0.4,0.6-0.2,0.9C549.7,928.1,550.1,928.2,550.4,928L550.4,928z"/>
			</g>
		</g>
		<g>
			<g>
				<path class="st7" d="M544.8,926.4c-0.3-1.2-1.3-2.1-2.5-2.5c-1.2-0.4-2.5-0.3-3.8-0.1c-0.6,0.1-1.2,0.2-1.8,0.5
					c-0.6,0.3-1,1-0.7,1.7c0.3,0.7,1.1,1,1.8,1.1c0.6,0.1,1.2,0.2,1.7,0.3c1.4,0.1,2.8,0.1,4.1-0.2c-0.2-0.3-0.4-0.6-0.7-0.9
					c-0.4,1.3-0.8,3,0.2,4.1c0.2,0.3,0.6,0.4,0.9,0.2c0.3-0.2,0.4-0.6,0.2-0.9c0-0.1-0.1-0.1-0.1-0.2c0,0,0-0.1-0.1-0.1
					c0,0,0,0,0-0.1c0,0,0,0,0,0.1c0-0.1-0.1-0.2-0.1-0.4c0-0.1,0,0,0,0c0,0,0-0.1,0-0.1c0-0.1,0-0.1,0-0.2c0-0.1,0-0.1,0-0.2
					c0,0,0-0.1,0-0.1c0-0.1,0,0.1,0,0c0-0.3,0.1-0.6,0.1-0.9c0-0.2,0.1-0.3,0.1-0.4c0-0.1,0-0.1,0.1-0.2c0-0.1,0,0.1,0,0
					c0,0,0-0.1,0-0.1c0.1-0.2,0.1-0.4-0.1-0.6c-0.1-0.2-0.4-0.3-0.6-0.3c-0.5,0.1-1.1,0.2-1.6,0.2c-0.5,0-1.1,0.1-1.6,0
					c0.2,0-0.1,0-0.1,0c-0.1,0-0.1,0-0.2,0c-0.1,0-0.3,0-0.4,0c-0.3,0-0.5-0.1-0.8-0.1c-0.3,0-0.5-0.1-0.8-0.2
					c-0.1,0-0.3-0.1-0.4-0.1c0,0-0.1,0-0.1,0c0,0,0,0,0.1,0c0,0,0,0-0.1,0c-0.1,0-0.1-0.1-0.2-0.1c0,0-0.1,0-0.1,0
					c-0.1,0,0.1,0.1,0,0c0,0,0,0-0.1-0.1c-0.1-0.1,0,0,0,0c0,0,0,0-0.1-0.1c-0.1-0.1,0,0.1,0,0c0,0,0-0.1,0,0c0,0.1,0,0.1,0,0
					c0,0,0,0,0,0c0,0.1,0,0,0,0c0-0.1,0.1-0.1,0,0.1c0,0,0,0,0-0.1c0-0.1,0,0.1,0,0.1c0,0,0.1-0.1,0.1-0.1c0-0.1-0.1,0.1,0,0
					c0,0,0,0,0.1-0.1c0,0,0.1-0.1,0.1-0.1c0,0,0.1,0-0.1,0c0,0,0,0,0.1,0c0.1,0,0.2-0.1,0.3-0.1c0,0,0.1,0,0.2,0c0,0-0.2,0-0.1,0
					c0,0,0.1,0,0.1,0c0.1,0,0.3-0.1,0.4-0.1c0.5-0.1,1.1-0.2,1.7-0.2c0.1,0,0.2,0,0.4,0c0.1,0,0.2,0,0.2,0c0,0,0.1,0,0.1,0
					c0,0-0.1,0-0.1,0c0,0,0.1,0,0.1,0c0.3,0,0.5,0.1,0.8,0.1c0,0,0.2,0,0.2,0.1c0,0-0.2-0.1,0,0c0,0,0.1,0,0.1,0
					c0.1,0,0.3,0.1,0.4,0.2c0.1,0,0.1,0.1,0.2,0.1c0,0,0,0,0.1,0c0.1,0.1-0.1-0.1,0,0c0.1,0.1,0.2,0.2,0.3,0.2
					c0.1,0,0.1,0.1,0.2,0.1c0,0,0,0,0.1,0.1c0.1,0.1-0.1-0.1,0,0c0.1,0.1,0.2,0.2,0.2,0.3c0,0,0.1,0.1,0.1,0.2c-0.1-0.1-0.1-0.1,0,0
					c0,0,0,0.1,0.1,0.1c0.1,0.1,0.1,0.3,0.1,0.4c0,0.2,0.2,0.3,0.3,0.4c0.1,0.1,0.3,0.1,0.5,0c0.2-0.1,0.3-0.2,0.4-0.3
					C544.9,926.7,544.8,926.6,544.8,926.4L544.8,926.4z"/>
			</g>
		</g>
		<g>
			<g>
				<path class="st7" d="M562.8,921c0.3-0.3,0.6-0.6,0.9-0.9c-0.4-0.1-0.8-0.2-1.2-0.4c0.1,0.5,0.1,0.9,0.1,1.4c0,0,0,0.1,0,0
					c0,0,0,0.1,0,0.1c0,0.1,0,0.1,0,0.2c0,0.1,0,0.3,0,0.4c0,0.2-0.1,0.5-0.1,0.7c-0.2,0.9-0.4,1.9-0.7,2.8c-0.6,2-1,4.1-1.3,6.2
					c-0.2,1.2-0.2,2.5-0.3,3.7c0,0.3,0.2,0.5,0.5,0.6c0.3,0.1,0.5,0,0.7-0.2c2.5-2.5,5.1-5,7.7-7.5c0.6-0.6,1.3-1.2,1.9-1.9
					c0.3-0.3,0.6-0.6,0.9-0.9c0.2-0.1,0.3-0.3,0.5-0.4c0,0,0.1-0.1,0.1-0.1c0.1-0.1,0,0,0,0c0.1-0.1,0.2-0.2,0.3-0.3
					c1.2-1.2,2.5-2.3,3.9-3.3c0.8-0.6,1.6-1.1,2.4-1.5c0,0,0.1-0.1,0.1-0.1c0,0,0.2-0.1,0.1-0.1c-0.1,0.1,0.1,0,0.1,0
					c0.1,0,0.1-0.1,0.2-0.1c0.2-0.1,0.4-0.2,0.7-0.3c0.4-0.2,0.9-0.4,1.3-0.5c0.5-0.2,0.5-0.8,0.2-1.1c-1.5-1.3-3.1-2.5-4.9-3.4
					c-1.7-0.9-3.5-1.7-5.4-2.4c-1.8-0.7-3.7-1.3-5.6-1.9c-1.8-0.6-3.7-1.2-5.6-1.5c-1.9-0.4-3.8-0.6-5.7-0.5c-0.2,0-0.5,0-0.7,0.1
					c-0.3,0-0.6,0.3-0.6,0.6c0,0.3,0.2,0.6,0.5,0.7c2.1,0.6,4.2,1.2,6.3,1.8s4.2,1.2,6.3,1.8c0.3,0.1,0.5,0.2,0.8,0.2
					c-0.1,0,0.1,0,0.1,0c0.1,0,0.1,0,0.2,0.1c0.1,0,0.3,0.1,0.4,0.1c0.5,0.2,1.1,0.3,1.6,0.5c1,0.3,2.1,0.7,3.1,1
					c1,0.3,2.1,0.7,3.1,1c0.5,0.2,1,0.4,1.6,0.5c0.5,0.2,1,0.3,1.5,0.4c0.5,0.1,1,0.1,1.5-0.1c0.5-0.2,1-0.6,1.2-1
					c0.4-0.9-0.1-2.1-1.1-2.3c-0.2-0.1-0.5,0-0.7,0c-0.3,0.1-0.5,0.5-0.4,0.8c0.1,0.3,0.5,0.5,0.8,0.4c0.1,0-0.2,0,0,0c0,0,0,0,0,0
					c0.1,0-0.1,0-0.1,0c0,0,0.1,0,0.1,0c0,0-0.1,0-0.1,0c0,0,0,0,0.1,0c0,0,0,0,0,0c0.1,0-0.1,0-0.1,0c0,0,0.1,0,0.1,0.1
					c0,0,0.1,0.1,0.1,0.1c0,0-0.1-0.1-0.1-0.1c0,0,0,0,0,0.1c0,0,0,0.1,0.1,0.1c0,0.1-0.1-0.1,0-0.1c0,0,0,0,0,0.1c0,0,0,0.1,0,0.1
					c0,0.1,0-0.1,0,0c0,0,0,0.1,0,0.1c0,0,0-0.1,0-0.1c0,0,0,0,0,0.1c0,0,0,0,0,0c0,0.1,0,0.1,0,0c0,0,0,0.1-0.1,0.1
					c0,0.1,0.1-0.1,0,0c0,0-0.1,0.1-0.1,0.1c0,0,0,0,0,0c0,0.1,0.1-0.1,0.1-0.1c0,0-0.1,0.1-0.1,0.1c0,0-0.1,0.1-0.1,0.1
					c0,0,0.1-0.1,0.1,0c0,0,0,0-0.1,0c-0.1,0-0.2,0.1-0.3,0.1c0,0,0.1,0,0.1,0c0,0,0,0-0.1,0c0,0-0.1,0-0.1,0c-0.1,0-0.1,0-0.2,0
					c0,0-0.1,0,0,0c0,0-0.1,0-0.1,0c-0.2,0-0.4-0.1-0.6-0.1c0,0-0.1,0-0.2,0c0,0,0.1,0,0,0c0,0,0,0-0.1,0c-0.1,0-0.2-0.1-0.3-0.1
					c-0.2-0.1-0.5-0.2-0.7-0.3c-0.5-0.2-1-0.3-1.5-0.5c-1-0.3-2-0.7-3-1c-2-0.7-4.1-1.3-6.1-1.9c-2-0.6-4-1.2-6-1.8
					c-2-0.6-4-1.1-6-1.7c-0.3-0.1-0.5-0.1-0.8-0.2c0,0.4,0,0.9,0,1.3c0.5,0,0.9-0.1,1.4-0.1c0.2,0,0.5,0,0.7,0c0.1,0,0.1,0,0.2,0
					c0.1,0-0.1,0,0,0c0,0,0,0,0.1,0c0.1,0,0.2,0,0.4,0c0.9,0.1,1.9,0.2,2.8,0.3c0.9,0.2,1.8,0.4,2.8,0.6c0.5,0.1,0.9,0.2,1.4,0.4
					c0.1,0,0.2,0.1,0.3,0.1c0,0,0.2,0.1,0.1,0c-0.1,0,0,0,0,0c0,0,0.1,0,0.1,0c0.2,0.1,0.5,0.1,0.7,0.2c1.8,0.6,3.7,1.2,5.5,1.8
					c1.8,0.7,3.7,1.4,5.4,2.3c0.4,0.2,0.8,0.4,1.3,0.7c0.1,0.1,0.2,0.1,0.3,0.2c0,0,0.3,0.2,0.3,0.2c0,0-0.1-0.1,0,0
					c0,0,0.1,0,0.1,0.1c0,0,0.1,0.1,0.1,0.1c0.1,0.1,0.2,0.1,0.3,0.2c0.8,0.5,1.6,1.1,2.3,1.7c0.2,0.2,0.4,0.3,0.5,0.5
					c0.1-0.4,0.1-0.7,0.2-1.1c-3.3,1.2-6,3.3-8.6,5.6c-1.3,1.2-2.6,2.5-3.9,3.7c-1.3,1.2-2.6,2.5-3.8,3.7c-1.4,1.4-2.9,2.8-4.3,4.3
					c0.4,0.1,0.8,0.2,1.2,0.4c0-0.1,0-0.1,0-0.2c0,0,0-0.1,0,0c0,0,0-0.1,0-0.1c0-0.1,0-0.3,0-0.4c0-0.3,0-0.5,0.1-0.8
					c0-0.5,0.1-1.1,0.2-1.6c0.1-1.1,0.3-2.1,0.5-3.2c0.2-1,0.5-2.1,0.7-3.1c0.3-0.9,0.5-1.9,0.7-2.8c0.2-1.1,0.3-2.2,0.1-3.3
					c0-0.3-0.2-0.5-0.5-0.6c-0.3-0.1-0.5,0-0.7,0.2c-0.3,0.3-0.6,0.6-0.9,0.9c-0.2,0.2-0.2,0.7,0.1,0.9
					C562.2,921.4,562.5,921.3,562.8,921L562.8,921z"/>
			</g>
		</g>
		<g>
			<g>
				<path class="st7" d="M559.2,939.3c0.5-0.3,0.8-0.8,0.9-1.4c-0.4,0-0.9,0-1.3,0c0.1,0.9,0.2,1.8,0.2,2.8c0,0.1,0,0.2,0,0.4
					c0,0,0,0,0-0.1c0,0,0,0.1,0,0.1c0,0.1,0,0.1,0,0.2c0,0.2,0,0.4,0,0.7c0,0.5-0.1,0.9-0.2,1.4c-0.1,0.3,0.2,0.7,0.5,0.8
					c0.4,0,0.7-0.2,0.8-0.5c0.3-1.9,0.3-3.8,0.1-5.7c0-0.3-0.3-0.6-0.6-0.6c-0.3,0-0.6,0.2-0.7,0.5c0,0,0,0.1,0,0.1c0,0.1,0-0.1,0,0
					c0,0,0,0.1,0,0.1c0,0,0,0.1,0,0.1c0,0,0,0,0,0c0,0,0,0,0,0c0,0,0,0,0,0.1c0,0-0.1,0.1-0.1,0.1c0,0,0,0,0,0c0.1-0.1,0.1-0.1,0,0
					c0,0-0.1,0.1-0.1,0.1c-0.3,0.2-0.4,0.6-0.2,0.9C558.5,939.5,558.9,939.5,559.2,939.3L559.2,939.3z"/>
			</g>
		</g>
	</g>
</g>
<g id="Frame_Body">
	<g>
		<g>
			<path class="st1" d="M0,0v1080h1080V0H0z M1050,1050H385.2c-2.9,0-5.2-2.3-5.2-5.2V951h-1v94.3c0,2.8-2.2,5-5,5l0,0
				c-2.8,0-5-2.2-5-5V951h-5v93.8c0,2.9-2.3,5.2-5.2,5.2H30V30h1020V1050z"/>
		</g>
		<g>
			<path class="st1" d="M431.4,468.7c3.1,4.7,5.9,9.7,8.2,14.9c1.1,2.6,2.1,5.3,2.8,8c0.3,1.4,0.6,2.8,0.7,4.2
				c0.1,1.4,0,2.9-0.5,4.3c-0.3,0.7-0.7,1.3-1.3,1.8c-0.6,0.5-1.3,0.8-2,1.1c-1.4,0.5-2.8,0.7-4.2,0.9c-2.9,0.3-5.7,0.2-8.6-0.1
				c-5.7-0.6-11.2-2-16.6-3.9c-1.3-0.5-2.7-1-4-1.5c-1.3-0.5-2.6-1-3.9-1.4c-2.7-0.8-5.4-1.1-8.2-1.1c-1.4,0.1-2.7,0.2-4.1,0.5
				c-1.3,0.3-2.6,0.8-3.8,1.4c-1.2,0.6-2.4,1.3-3.4,2.2c-1,0.9-2,1.8-2.8,2.9c-1.7,2.1-2.9,4.6-3.8,7.2c-0.9,2.6-1.5,5.3-1.8,8.1
				c-0.3,2.8-0.5,5.6-0.5,8.4c0,2.7,0.7,5.4,1.6,8c1,2.6,2.1,5.2,3.2,7.8c1.1,2.6,2.2,5.3,3.1,8c1.9,5.4,3.3,11,4.2,16.6
				c1.9,11.3,2.2,22.8,1.8,34.1c-0.9,22.8-4.5,45.3-8.9,67.5c-4.3,22.2-7.6,44.6-7.2,67.1c0.2,11.2,1.6,22.4,4.2,33.4
				c2.5,11,5.9,21.8,8,33.1c2.1,11.2,2.9,22.6,2.5,34c-0.2,5.7-0.6,11.3-1.1,17l-1.4,16.9c-1.9,22.6-3.2,45.2-3.3,67.8h-1
				c-0.1-22.7,1.1-45.4,2.9-68l1.3-16.9c0.4-5.6,0.8-11.3,1-16.9c0.5-11.3-0.6-22.6-2.8-33.6c-2.2-11.1-5.8-21.8-8.5-32.9
				c-1.3-5.5-2.5-11.1-3.2-16.8c-0.8-5.7-1.2-11.4-1.4-17.1c-0.2-5.7-0.1-11.4,0.2-17.1c0.2-2.8,0.3-5.7,0.6-8.5
				c0.2-2.8,0.5-5.7,0.9-8.5c1.3-11.3,3.2-22.5,5.5-33.7c2.3-11.1,4.3-22.2,6-33.4c1.6-11.2,2.8-22.4,3.3-33.7
				c0.4-11.3,0.2-22.6-1.6-33.7c-0.9-5.5-2.2-11-4-16.3c-0.9-2.7-1.9-5.3-3-7.9c-1.1-2.6-2.2-5.2-3.2-7.9c-1-2.7-1.7-5.6-1.6-8.6
				c0-2.9,0.2-5.7,0.6-8.6c0.4-2.9,1-5.7,2-8.4c1-2.7,2.3-5.4,4.2-7.7c0.9-1.2,2-2.2,3.1-3.1c1.2-0.9,2.4-1.7,3.8-2.3
				c1.3-0.6,2.7-1.1,4.2-1.4c1.4-0.3,2.9-0.5,4.3-0.5c2.9-0.1,5.8,0.4,8.6,1.2c1.4,0.4,2.8,1,4,1.5c1.3,0.6,2.6,1.1,3.9,1.6
				c5.3,1.9,10.8,3.4,16.3,4.1c2.8,0.4,5.6,0.5,8.4,0.3c1.4-0.1,2.8-0.4,4.1-0.8c0.7-0.2,1.3-0.5,1.8-0.9c0.5-0.4,0.9-1,1.1-1.6
				c0.5-1.2,0.6-2.7,0.5-4.1c-0.1-1.4-0.3-2.8-0.6-4.2c-0.6-2.7-1.6-5.4-2.7-8C437.1,478.5,434.4,473.5,431.4,468.7z"/>
		</g>
		<g>
			<path class="st1" d="M232.9,503.2c0.5-0.5,1.3-0.5,1.9-0.5c0.7,0,1.4,0.1,2,0.2c1.4,0.2,2.7,0.5,4,0.7c1.3,0.2,2.7,0.4,4.1,0.4
				c1.4,0,2.7-0.3,4.1-0.5c5.4-0.8,10.8-1.7,16.3-2.2c2.7-0.2,5.5-0.3,8.2,0c1.3,0.2,2.8,0.5,3.9,1.4c1.1,0.8,2.1,1.7,3.2,2.7
				c4,3.7,7.7,7.8,10.8,12.4c1.6,2.3,2.9,4.7,4.1,7.2c0.6,1.3,1,2.6,1.4,3.9c0.2,0.7,0.3,1.4,0.5,2c0.2,0.6,0.4,1.3,0.6,1.9
				c1,2.5,2.4,4.9,3.8,7.2c1.4,2.3,3,4.6,4.6,6.7c3.2,4.4,6.7,8.6,10.4,12.7c1.8,2,3.7,4,5.6,5.9c1.9,1.9,3.9,3.8,6.1,5.4
				c0.5,0.4,1.1,0.8,1.6,1.1c0.3,0.2,0.6,0.3,0.8,0.4c0.1,0.1,0.3,0.1,0.4,0.2l0.5,0.2c1.3,0.5,2.6,1.1,3.8,1.7
				c2.5,1.3,4.8,2.7,7.1,4.2c2.3,1.5,4.5,3.2,6.7,4.9c2.2,1.7,4.2,3.5,6.2,5.5c2,2,3.7,4.2,5.3,6.4c1.6,2.3,2.9,4.7,4.1,7.3
				c2.3,5.1,3.8,10.5,4.2,16.1c0.1,0.7,0.1,1.4,0.1,2.1c0,0.7,0.1,1.4,0.1,2.1c0,1.4,0,2.8-0.2,4.2c-0.2,2.8-0.6,5.5-0.9,8.2
				c-0.6,5.4-1.2,10.9-1.6,16.3c-0.5,5.4-0.9,10.9-1.1,16.4c-0.2,5.4-0.4,10.9-0.1,16.3c0.1,2.7,0.4,5.4,0.9,8
				c0.1,0.3,0.1,0.6,0.2,1c0.1,0.3,0.1,0.6,0.3,0.9c0.1,0.3,0.2,0.6,0.3,0.9c0.1,0.3,0.2,0.6,0.4,0.9c0.6,1.2,1.2,2.4,1.9,3.6
				c2.7,4.7,5.5,9.5,8.1,14.3c5.2,9.7,9.6,19.9,12.8,30.5c3.2,10.6,5.3,21.5,6.1,32.6c0.1,1.4,0.2,2.8,0.2,4.1
				c0.1,1.4,0.2,2.8,0.1,4.2c0,2.8-0.3,5.6-0.7,8.4c-0.8,5.5-2,10.9-3.4,16.3c-2.7,10.7-5.9,21.2-8.8,31.7
				c-2.9,10.5-5.7,21.1-8,31.8c-4.6,21.3-7.5,43-7.3,64.7h-5c0.1-22.1,3.3-44.1,8.2-65.6c2.4-10.7,5.3-21.4,8.4-31.9
				c3-10.5,6.3-21,9.1-31.5c1.4-5.3,2.7-10.5,3.5-15.9c0.4-2.7,0.7-5.3,0.7-7.9c0-1.3,0-2.6-0.1-4c-0.1-1.4-0.1-2.7-0.2-4.1
				c-0.7-10.8-2.6-21.6-5.7-32c-3.1-10.4-7.3-20.5-12.3-30.1c-2.5-4.8-5.2-9.5-7.9-14.4c-0.7-1.2-1.3-2.4-1.9-3.7
				c-0.2-0.3-0.3-0.7-0.4-1c-0.1-0.3-0.3-0.7-0.4-1.1c-0.1-0.4-0.2-0.7-0.3-1.1c-0.1-0.4-0.2-0.7-0.2-1.1c-0.5-2.8-0.7-5.6-0.8-8.3
				c-0.2-5.5,0-11,0.3-16.5c0.3-5.5,0.7-11,1.3-16.4c0.5-5.5,1.1-10.9,1.8-16.4c0.3-2.7,0.7-5.5,1-8.1c0.2-1.3,0.2-2.7,0.2-4
				c0-0.7,0-1.3,0-2c0-0.7,0-1.3-0.1-2c-0.4-5.4-1.8-10.6-3.9-15.6c-1.1-2.4-2.4-4.8-3.9-7.1c-1.5-2.2-3.2-4.4-5.1-6.3
				c-1.9-1.9-3.9-3.7-6-5.5c-2.1-1.7-4.3-3.3-6.5-4.9c-2.3-1.5-4.6-3-7-4.2c-1.2-0.6-2.4-1.2-3.7-1.7l-0.5-0.2
				c-0.2-0.1-0.4-0.1-0.5-0.2c-0.3-0.2-0.7-0.3-1-0.5c-0.6-0.4-1.2-0.8-1.7-1.2c-2.2-1.7-4.2-3.6-6.1-5.6c-1.9-2-3.8-4-5.6-6
				c-3.6-4.1-7.1-8.4-10.3-12.8c-1.6-2.2-3.2-4.5-4.6-6.8c-1.4-2.4-2.8-4.8-3.8-7.4c-0.2-0.7-0.5-1.3-0.6-2c-0.2-0.7-0.3-1.3-0.5-2
				c-0.4-1.3-0.8-2.6-1.3-3.8c-1.1-2.5-2.4-4.9-3.9-7.1c-3-4.5-6.7-8.7-10.7-12.4c-1-0.9-2-1.8-3.1-2.7c-1-0.9-2.4-1.2-3.7-1.4
				c-2.7-0.4-5.4-0.2-8.2-0.1c-5.5,0.4-10.9,1.3-16.3,2c-1.4,0.2-2.7,0.4-4.1,0.4c-1.4,0-2.7-0.2-4.1-0.5c-1.3-0.2-2.7-0.5-4-0.7
				c-0.7-0.1-1.4-0.2-2-0.2C234.2,502.8,233.4,502.8,232.9,503.2z"/>
		</g>
		<g>
			<path class="st1" d="M474.8,480.1c0.8,1.7,2.3,3.1,3.9,4.1c1.6,1,3.4,1.8,5.1,2.5c3.6,1.3,7.3,2.2,11.1,3
				c7.5,1.5,15.1,2.5,22.6,4c3.8,0.8,7.5,1.6,11.1,3.2c1.8,0.8,3.6,1.8,4.9,3.5c0.3,0.4,0.6,0.9,0.8,1.4c0.2,0.5,0.3,1,0.4,1.5
				c0.2,1,0.3,2,0.3,2.9c0.2,3.9-0.1,7.7-0.4,11.6c-0.3,3.8-0.7,7.6-1.2,11.5c-1.8,15.2-4.1,30.4-6.2,45.5c-1,7.6-2.1,15.2-2.9,22.8
				c-0.4,3.8-0.8,7.6-1,11.4c-0.2,3.8-0.4,7.6-0.2,11.3c0.1,1.9,0.3,3.7,1,5.2c0.7,1.7,1.5,3.5,2.3,5.1c1.7,3.4,3.5,6.7,5.5,9.9
				c4,6.4,8.5,12.6,13.6,18.2c5.1,5.6,10.7,10.7,16.8,15.1c3.1,2.2,6.2,4.2,9.6,6.1c3.3,1.9,6.6,3.8,9.9,5.7
				c13.3,7.4,27,14.3,41.6,18.2c14.6,4,29.9,5,45.1,5.5l0.5,0l0.4,0.3c4.6,3.9,10,6.9,15.7,9.3c5.7,2.4,11.6,4.4,17.5,6
				c12,3.3,24.2,5.6,36.6,7.4c12.3,1.8,24.8,3,37.2,3.9c6.2,0.4,12.5,0.8,18.7,1c0.8,0,1.6,0.1,2.4,0.1l2.4,0.2l4.7,0.4l9.3,0.8
				c24.9,2.2,49.8,4.5,74.7,6.9l18.7,1.8l9.3,1l4.7,0.5c1.6,0.2,3.1,0.3,4.7,0.6c2.9,0.5,6.1,0.3,9.1,0.2c3.1-0.1,6.2-0.4,9.3-0.6
				c3.1-0.2,6.2-0.5,9.4-0.7c0.8,0,1.6-0.1,2.5,0c0.9,0.1,1.7,0.3,2.4,0.6c1.5,0.5,3,1.2,4.4,1.9c1.4,0.7,2.8,1.5,4.1,2.4
				c0.7,0.5,1.3,0.9,2,1.5c0.2,0.2,0.3,0.3,0.5,0.7c0,0.1,0.1,0.2,0.1,0.5c0,0.3-0.3,0.7-0.4,0.8c-0.3,0.2-0.4,0.2-0.6,0.2
				c-0.5,0.1-0.9,0.1-1.3,0.1c-3.2,0.1-6.3,0-9.4-0.1c-1.6,0-3.1,0-4.7,0c-1.5,0-3.1,0-4.5,0.3c-1.4,0.3-2.7,1-3.9,1.9
				c-1.2,0.9-2.4,1.9-3.6,2.9c-0.6,0.5-1.2,1-2,1.4c-0.1,0.1-0.2,0.1-0.3,0.2c-0.1,0-0.2,0.1-0.4,0.1c-0.3,0.1-0.6,0.1-0.9,0
				c-0.5-0.1-0.9-0.3-1.3-0.5c-1.5-0.9-2.6-2-3.7-3.1c-0.6-0.5-1.1-1.1-1.7-1.6c-0.3-0.2-0.6-0.5-0.8-0.6c0,0,0,0,0,0c0.1,0,0,0,0,0
				l-0.3,0l-0.6,0c-1.5,0-3.1,0-4.7,0c-6.2,0.1-12.5,0.3-18.7,0.5c-12.5,0.5-25,1.1-37.4,2c-6.2,0.5-12.5,1-18.6,2
				c-1.5,0.2-3,0.7-4.5,1c-1.5,0.4-3.1,0.7-4.6,1c-3.1,0.6-6.2,1.1-9.3,1.6c-3.1,0.4-6.2,0.8-9.3,1c-3.1,0.2-6.3,0.4-9.4,0.2
				c-0.8-0.1-1.6-0.1-2.4-0.3c-0.8-0.2-1.6-0.3-2.3-0.8c-0.4-0.3-0.6-0.5-0.9-0.7c-0.3-0.2-0.7-0.3-1-0.4c-0.7-0.2-1.5-0.3-2.2-0.3
				c-1.5,0-3.1,0.1-4.5,0.5c-0.7,0.2-1.5,0.4-2.2,0.7c-0.7,0.3-1.3,0.7-1.8,1.3c-0.4,0.5-0.3,1.2,0.2,1.7c0.5,0.5,1.1,1.1,1.7,1.6
				c1.1,1.1,2.2,2.2,3.3,3.4c2.1,2.3,4.1,4.7,6,7.3c3.7,5.1,6.9,10.5,9.5,16.2c2.6,5.7,4.7,11.6,6.1,17.7c1.5,6.1,2.3,12.3,2.7,18.5
				c0.8,12.5-0.7,25-3.5,37.2c2.7-12.2,4.1-24.7,3.3-37.2c-0.4-6.2-1.3-12.4-2.8-18.5c-1.5-6.1-3.6-12-6.2-17.6
				c-2.6-5.7-5.8-11-9.5-16c-1.9-2.5-3.8-4.9-6-7.2c-1.1-1.1-2.1-2.3-3.3-3.3c-0.6-0.6-1.1-1.1-1.7-1.6c-0.3-0.3-0.5-0.7-0.6-1.2
				c-0.1-0.5,0.1-1,0.4-1.3c0.5-0.7,1.3-1.1,2-1.5c0.7-0.3,1.5-0.6,2.3-0.8c1.5-0.4,3.1-0.6,4.7-0.6c0.8,0,1.6,0.1,2.4,0.3
				c0.4,0.1,0.8,0.3,1.2,0.5c0.4,0.2,0.7,0.6,1,0.7c0.6,0.4,1.3,0.6,2.1,0.7c0.7,0.1,1.5,0.2,2.3,0.3c3.1,0.2,6.2,0,9.3-0.2
				c3.1-0.3,6.2-0.6,9.3-1.1c3.1-0.5,6.2-1,9.2-1.6c1.5-0.3,3-0.6,4.6-1c1.5-0.4,3-0.8,4.6-1.1c6.2-1.1,12.4-1.6,18.7-2.1
				c12.5-1,25-1.7,37.4-2.3c6.2-0.3,12.5-0.5,18.8-0.7c1.6,0,3.1-0.1,4.7,0l0.6,0l0.3,0c0.1,0,0.1,0,0.2,0c0.2,0,0.2,0.1,0.3,0.1
				c0.5,0.3,0.8,0.5,1.1,0.8c0.6,0.5,1.2,1.1,1.7,1.6c1.1,1.1,2.3,2.1,3.5,2.9c0.3,0.2,0.6,0.3,0.8,0.4c0.1,0,0.2,0,0.3,0
				c0,0,0.1,0,0.2-0.1c0.1,0,0.1-0.1,0.2-0.1c0.6-0.3,1.2-0.8,1.8-1.3c1.2-1,2.4-2,3.7-2.9c1.3-0.9,2.7-1.8,4.5-2.2
				c1.7-0.3,3.2-0.3,4.8-0.3c1.6,0,3.1,0,4.7,0c3.1,0,6.3,0.1,9.3,0c0.4,0,0.8,0,1-0.1c0,0,0.1-0.1,0,0c-0.1,0-0.3,0.4-0.3,0.5
				c0,0.2,0,0.2,0,0.2c0,0-0.1-0.1-0.2-0.2c-0.5-0.5-1.1-0.9-1.7-1.3c-1.3-0.8-2.6-1.6-4-2.3c-1.4-0.7-2.8-1.3-4.2-1.8
				c-0.7-0.2-1.4-0.4-2.1-0.5c-0.7-0.1-1.4,0-2.2,0c-3.1,0.2-6.2,0.5-9.3,0.7c-3.1,0.3-6.2,0.5-9.4,0.7c-3.1,0.1-6.3,0.3-9.6-0.2
				c-1.5-0.2-3-0.4-4.6-0.5l-4.7-0.5l-9.3-0.9l-18.7-1.8c-24.9-2.3-49.8-4.5-74.7-6.7l-9.3-0.8l-4.7-0.4l-2.3-0.2
				c-0.7,0-1.5-0.1-2.3-0.1c-6.3-0.2-12.5-0.5-18.8-0.9c-12.5-0.8-25-2-37.4-3.7c-12.4-1.7-24.8-3.9-36.9-7.2
				c-6.1-1.7-12.1-3.6-17.9-6.1c-5.8-2.5-11.5-5.5-16.5-9.7l0.9,0.4c-7.7-0.2-15.4-0.5-23-1.4c-7.7-0.8-15.3-2.1-22.8-4.1
				c-7.5-2-14.8-4.8-21.8-8c-7-3.2-13.8-6.8-20.5-10.6c-3.4-1.9-6.7-3.8-10-5.7c-3.3-1.9-6.7-4-9.8-6.3c-6.3-4.6-12-9.9-17.2-15.7
				c-5.2-5.8-9.7-12.1-13.7-18.7c-2-3.3-3.9-6.7-5.5-10.2c-0.8-1.8-1.6-3.5-2.3-5.4c-0.8-2-1-4.1-1.1-6c-0.2-3.9,0-7.8,0.3-11.6
				c0.3-3.8,0.7-7.7,1.1-11.5c0.9-7.6,2-15.2,3.1-22.8c2.3-15.2,4.8-30.3,6.8-45.4c0.5-3.8,0.9-7.6,1.3-11.4
				c0.3-3.8,0.6-7.6,0.5-11.4c0-0.9-0.1-1.9-0.3-2.8c-0.1-0.4-0.2-0.9-0.3-1.3c-0.1-0.4-0.3-0.8-0.6-1.1c-1-1.4-2.7-2.4-4.4-3.2
				c-3.4-1.6-7.1-2.5-10.9-3.3c-7.5-1.6-15.1-2.7-22.5-4.4c-3.7-0.8-7.5-1.8-11-3.2c-1.8-0.7-3.5-1.5-5.1-2.6
				C477,483.2,475.6,481.9,474.8,480.1z"/>
		</g>
		<g>
			<path class="st1" d="M192.8,521.2c0.8,0.8,1.9,1.2,2.9,1.5c1.1,0.3,2.1,0.5,3.2,0.6c2.2,0.3,4.4,0.3,6.6,0.3
				c4.4,0,8.8-0.3,13.3-0.4c2.2,0,4.4,0,6.7,0.5c0.5,0.2,1.1,0.3,1.6,0.8c0.4,0.4,0.8,0.6,1.3,0.9c1,0.4,2,0.7,3.1,1
				c4.3,0.9,8.7,1.2,13.1,1.8c2.2,0.3,4.4,0.6,6.6,1.2c0.3,0.1,0.6,0.2,0.8,0.3c0.2,0.1,0.5,0.1,0.7,0.2c0.5,0.1,1.1,0.1,1.6,0.1
				c1.1,0.1,2.2,0.1,3.3,0.3c4.5,0.7,8.6,2.6,12.4,4.9c7.7,4.6,14.4,10.4,20.8,16.5c6.4,6.1,12.4,12.6,18.2,19.3
				c5.8,6.7,11.4,13.5,16.9,20.5c5.5,7,10.8,14,16,21.2c5.2,7.2,10.3,14.4,15.3,21.7c-5.2-7.2-10.4-14.3-15.7-21.4
				c-5.3-7.1-10.7-14.1-16.2-21c-11-13.8-22.5-27.3-35.2-39.5c-6.4-6.1-13.1-11.9-20.6-16.4c-3.8-2.2-7.8-4.1-12.1-4.8
				c-1.1-0.2-2.2-0.3-3.3-0.3c-0.6,0-1.1-0.1-1.7-0.1c-0.3,0-0.6-0.1-0.9-0.2c-0.3-0.1-0.5-0.2-0.8-0.3c-2-0.7-4.2-1-6.4-1.3
				c-4.4-0.6-8.8-0.9-13.1-1.9c-1.1-0.3-2.2-0.6-3.2-1.1c-0.5-0.2-1-0.6-1.4-1c-0.3-0.3-0.9-0.5-1.4-0.6c-2.1-0.5-4.3-0.5-6.5-0.5
				c-4.4,0-8.8,0.2-13.3,0.1c-2.2,0-4.4-0.1-6.6-0.4c-1.1-0.2-2.2-0.4-3.2-0.7C194.6,522.5,193.6,522,192.8,521.2z"/>
		</g>
		<g>
			<path class="st1" d="M398.8,551.1c-0.2,4.5,0.5,9,1.5,13.3c1,4.4,2.4,8.6,4,12.8c3.2,8.3,7.3,16.3,12.3,23.7
				c2.5,3.7,5.2,7.2,8.1,10.5c1.5,1.6,3,3.2,4.6,4.8l4.8,4.8c6.3,6.4,12.4,13.2,17.9,20.4c5.4,7.2,10.3,15,13.9,23.4
				c3.5,8.4,5.6,17.6,4.9,26.8c-0.2,2.3-0.5,4.6-1,6.8c-0.4,2.2-0.8,4.4-1.3,6.6c-0.9,4.4-1.9,8.8-3,13.2c-1.1,4.4-2.3,8.7-3.6,13
				c-1.3,4.3-2.7,8.6-4.5,12.7c2.8-8.5,4.8-17.3,6.6-26.1c0.9-4.4,1.7-8.8,2.5-13.2l1.1-6.6c0.4-2.2,0.7-4.4,0.8-6.6
				c0.4-8.8-1.7-17.5-5.2-25.6c-3.5-8.1-8.3-15.7-13.7-22.7c-5.3-7.1-11.3-13.8-17.5-20.2l-4.7-4.8c-1.6-1.6-3.2-3.3-4.7-5
				c-3-3.4-5.7-7.1-8.1-11c-4.9-7.7-8.8-15.9-11.7-24.5c-1.4-4.3-2.6-8.7-3.4-13.1C398.7,560.1,398.3,555.6,398.8,551.1z"/>
		</g>
		<g>
			<path class="st1" d="M390.5,371.9c-2.4,4.6-4.7,9.3-6.7,14.1c-1,2.4-1.9,4.8-2.7,7.2c-0.8,2.4-1.4,4.9-1.7,7.3
				c-0.3,2.3,0.1,4.7,0.7,7.1c0.7,2.3,1.6,4.7,2.5,7.2c0.9,2.5,1.8,5.1,2.2,7.9c0.5,2.8,0.6,5.6,0.3,8.4c-0.2,2.8-0.9,5.5-1.7,8.2
				l-0.4,1.7c-0.1,0.5-0.2,1.1-0.3,1.6c0,0.6-0.1,1.1-0.1,1.7c0,0.6,0,1.2,0.1,1.7c0.4,4.7,2.2,9.5,4.4,14
				c4.5,9.1,10.6,17.6,17.1,25.5l-1-0.5c1.7,0.1,3.5,0.2,5.3,0.3c2.4,0.1,4.7,0.1,7.1,0c1.8-0.1,3.6-0.2,5.3-0.4
				c2-0.3,3.9-0.6,5.7-1.5c-1.7,1.2-3.6,1.8-5.6,2.4c-2,0.5-3.9,1-5.9,1.2c-2,0.3-4,0.5-6,0.7c-2,0.2-4,0.2-6.1,0.3l-0.5,0l-0.5-0.5
				c-3.8-3.8-7.2-7.8-10.5-12c-3.2-4.2-6.2-8.7-8.7-13.4c-2.5-4.8-4.6-9.9-5.2-15.7c-0.1-0.7-0.1-1.4-0.1-2.2c0-0.7,0.1-1.5,0.1-2.2
				c0.1-0.7,0.2-1.5,0.4-2.2l0.6-2.1l0.5-1.8l0.3-0.9l0.2-0.9l0.4-1.8c0.1-0.6,0.2-1.2,0.2-1.8c0.3-2.4,0.3-4.8-0.1-7.2
				c-0.3-2.4-1-4.8-1.8-7.2c-0.8-2.4-1.7-5-2.3-7.7c-0.6-2.7-0.8-5.6-0.3-8.5l0.4-2c0.2-0.7,0.4-1.3,0.6-2c0.2-0.7,0.4-1.3,0.7-1.9
				c0.2-0.6,0.5-1.3,0.7-1.9c1-2.5,2.2-4.8,3.5-7.2C384.4,380.4,387.3,376,390.5,371.9z"/>
		</g>
	</g>
</g>
<g id="One_Color">
</g>
<g id="Sun">
	<g>
		<g>
			<g>
				<g>
					<g>
						
							<rect x="386.8" y="277.4" transform="matrix(0.7071 -0.7071 0.7071 0.7071 -109.3385 371.9374)" class="st26" width="15" height="81"/>
					</g>
				</g>
			</g>
			<g>
				<g>
					<g>
						<rect x="449" y="252" class="st26" width="15" height="81"/>
					</g>
				</g>
			</g>
			<g>
				<g>
					<g>
						
							<rect x="477.3" y="310.5" transform="matrix(0.7071 -0.7071 0.7071 0.7071 -73.1659 459.2691)" class="st26" width="81" height="15"/>
					</g>
				</g>
			</g>
			<g>
				<g>
					<g>
						<rect x="503" y="372" class="st26" width="81" height="15"/>
					</g>
				</g>
			</g>
			<g>
				<g>
					<g>
						
							<rect x="510.3" y="400.9" transform="matrix(0.7071 -0.7071 0.7071 0.7071 -160.4936 495.4414)" class="st26" width="15" height="81"/>
					</g>
				</g>
			</g>
		</g>
		<g>
			<g>
				<g>
					<circle class="st27" cx="456" cy="380" r="26"/>
				</g>
			</g>
		</g>
		<g>
			<g>
				<path class="st28" d="M553.5,511.1l-0.6-0.8c41.1-30.6,65.7-79.4,65.7-130.6c0-89.6-72.9-162.6-162.6-162.6
					s-162.6,72.9-162.6,162.6c0,51,23.2,98,63.8,129.1l-0.6,0.8c-40.8-31.3-64.1-78.6-64.1-129.9c0-90.2,73.4-163.6,163.6-163.6
					s163.6,73.4,163.6,163.6c0,26.3-6.1,51.4-18,74.7C590.2,476.6,573.6,496.2,553.5,511.1z"/>
			</g>
		</g>
		<g>
			<g>
				<path class="st29" d="M572,605l-4.9-9.5c80.7-41.8,130.8-124.1,130.8-214.9c0-133.3-108.5-241.8-241.8-241.8
					S214.2,247.3,214.2,380.6c0,30.3,5.5,59.8,16.4,87.7l-10,3.9c-11.4-29.2-17.1-60-17.1-91.6c0-67.5,26.3-130.9,74-178.6
					s111.1-74,178.6-74s130.9,26.3,178.6,74s74,111.1,74,178.6c0,47.2-13.1,93.2-37.9,133.1C646.6,552.5,612.5,584.1,572,605z"/>
			</g>
		</g>
	</g>
</g>
<g id="Shaman">
	<g>
		<g>
			<g>
				<rect x="99" y="518" width="23" height="1"/>
			</g>
		</g>
		<g>
			<g>
				<path class="st32" d="M103,507v11h-3v-11H103 M104,506h-5v13h5V506L104,506z"/>
			</g>
		</g>
		<g>
			<rect x="101" y="506" class="st31" width="1" height="13"/>
		</g>
	</g>
</g>
<g id="Point">
	<g>
		<circle class="st31" cx="254" cy="513" r="6"/>
	</g>
</g>
</svg>
